<?xml version="1.0" encoding="utf-8"?>
<!-- Generator: Avocode 2.6.0 - http://avocode.com -->
<svg height="20" width="21" xmlns:xlink="http://www.w3.org/1999/xlink" xmlns="http://www.w3.org/2000/svg" viewBox="0 0 21 20">
    <path fill="#ffffff" fill-rule="evenodd" d="M 20.58 4.46 C 20.58 4.46 19.37 13.37 19.37 13.37 C 19.19 14.29 18.35 15.01 17.49 15.01 C 17.49 15.01 6.61 15.01 6.61 15.01 C 5.75 15.01 4.91 14.29 4.73 13.37 C 4.73 13.37 3.26 3.09 3.26 3.09 C 3.12 2.35 3.11 2.11 3.13 2.03 C 3.13 2.03 1 2.03 1 2.03 C 0.45 2.03 0 1.58 0 1.03 C 0 0.48 0.45 0.03 1 0.03 C 1 0.03 5 0.03 5 0.03 C 5.55 0.03 6 0.48 6 1.03 C 6 1.55 5.6 1.96 5.1 2.01 C 5.1 2.01 19.07 2.01 19.07 2.01 C 20.17 2.01 20.84 3.14 20.58 4.46 Z M 5.42 3.98 C 5.42 3.98 6.73 12.98 6.73 12.98 C 6.73 12.98 17.4 12.98 17.4 12.98 C 17.4 12.98 17.4 12.98 17.41 12.96 C 17.41 12.96 18.59 4.18 18.59 4.18 C 18.59 4.18 18.62 3.98 18.62 3.98 C 18.62 3.98 5.42 3.98 5.42 3.98 Z M 7.24 15.99 C 8.28 15.99 9.12 16.83 9.12 17.86 C 9.12 18.9 8.28 19.74 7.24 19.74 C 6.21 19.74 5.37 18.9 5.37 17.86 C 5.37 16.83 6.21 15.99 7.24 15.99 Z M 16.25 15.99 C 17.28 15.99 18.12 16.83 18.12 17.86 C 18.12 18.9 17.28 19.74 16.25 19.74 C 15.21 19.74 14.37 18.9 14.37 17.86 C 14.37 16.83 15.21 15.99 16.25 15.99 Z" />
</svg>