<svg xmlns="http://www.w3.org/2000/svg" width="14" height="10" viewBox="0 0 14 10">
  <defs>
    <style>
      .cls-1 {
        fill: #fff;
        fill-rule: evenodd;
      }
    </style>
  </defs>
  <path id="Чербокс_вкл._" data-name="Чербокс вкл. " class="cls-1" d="M1.146-4.986H12.854A4.161,4.161,0,0,1,17.014-.826v11.65a4.161,4.161,0,0,1-4.161,4.161H1.146a4.161,4.161,0,0,1-4.161-4.161V-0.826A4.161,4.161,0,0,1,1.146-4.986ZM1-4H13a3,3,0,0,1,3,3V11a3,3,0,0,1-3,3H1a3,3,0,0,1-3-3V-1A3,3,0,0,1,1-4ZM13.369,1.955L7.439,7.886h0L5.675,9.653l0,0,0,0L3.907,7.888h0l-3.07-3.07L2.6,3.051l3.07,3.07L11.6,0.19Z"/>
</svg>
