<?xml version="1.0" encoding="utf-8"?>
<!-- Generator: Avocode 2.6.0 - http://avocode.com -->
<svg height="49" width="48" xmlns:xlink="http://www.w3.org/1999/xlink" xmlns="http://www.w3.org/2000/svg" viewBox="0 0 48 49">
    <path fill="#323232" fill-rule="evenodd" d="M 39.58 24 C 39.32 24.39 38.7 25.04 37.45 25.04 C 36.56 25.04 35.25 24.66 34.2 24.2 C 34.42 26.72 33.92 29.6 32.62 32.55 C 33.09 33.5 33.29 34.55 33.14 35.63 C 32.65 39.01 28.85 40.87 24.61 40.87 C 20.37 40.87 16.59 39.01 16.13 35.63 C 16.01 34.72 16.14 33.83 16.46 33.01 C 15.02 29.93 14.45 26.92 14.68 24.28 C 13.66 24.71 12.45 25.04 11.61 25.04 C 10.36 25.04 9.74 24.39 9.48 24 C 9.06 23.35 9 22.55 9.32 21.78 C 10.13 19.87 12.91 19.04 14.07 18.77 C 14.07 18.77 14.17 18.75 14.17 18.75 C 12.77 15.85 13.45 11.15 13.97 9.56 C 13.97 9.56 17.03 9.81 17.03 9.81 C 17.08 10.82 17.79 12.69 20.46 14.82 C 20.46 14.82 22.05 15.91 22.05 15.91 C 22.8 15.77 23.59 15.68 24.45 15.68 C 25.26 15.68 26.02 15.77 26.74 15.89 C 26.74 15.89 28.43 14.73 28.43 14.73 C 31.1 12.6 31.81 10.72 31.86 9.72 C 31.86 9.72 34.92 9.46 34.92 9.46 C 35.45 11.06 36.13 15.81 34.7 18.7 C 34.7 18.7 34.99 18.77 34.99 18.77 C 36.15 19.04 38.93 19.87 39.74 21.78 C 40.06 22.55 40 23.35 39.58 24 Z M 14.51 20.72 C 14.51 20.72 11.65 21.38 11.15 22.57 C 10.64 23.75 14.3 22.43 14.98 21.87 C 14.66 21.4 14.63 21.28 14.51 20.72 Z M 17.81 20.79 C 16.05 23.54 16.23 27.8 18.27 32.16 C 18.27 32.16 18.64 32.94 18.64 32.94 C 18.64 32.94 18.32 33.74 18.32 33.74 C 18.11 34.28 18.04 34.82 18.11 35.36 C 18.44 37.77 21.71 38.87 24.61 38.87 C 27.52 38.87 30.81 37.76 31.16 35.34 C 31.25 34.7 31.14 34.06 30.83 33.44 C 30.83 33.44 30.41 32.6 30.41 32.6 C 30.41 32.6 30.79 31.74 30.79 31.74 C 32.67 27.49 32.76 23.37 31.03 20.72 C 29.74 18.73 27.46 17.68 24.45 17.68 C 21.4 17.68 19.1 18.75 17.81 20.79 Z M 37.9 22.57 C 37.4 21.38 34.54 20.72 34.54 20.72 C 34.42 21.28 34.39 21.4 34.06 21.87 C 34.75 22.43 38.4 23.75 37.9 22.57 Z M 19.33 16.47 C 19.33 16.47 15.73 13.99 15.59 11.45 C 15.19 13.63 15.01 17.07 16.3 18.44 C 16.94 18.11 17.96 17.03 19.33 16.47 Z M 29.56 16.37 C 29.56 16.37 33.16 13.9 33.3 11.36 C 33.7 13.53 33.88 16.97 32.59 18.34 C 31.95 18.02 30.93 16.94 29.56 16.37 Z M 24.18 0.8 C 37.27 0.8 47.88 11.41 47.88 24.5 C 47.88 37.59 37.27 48.2 24.18 48.2 C 11.09 48.2 0.48 37.59 0.48 24.5 C 0.48 11.41 11.09 0.8 24.18 0.8 Z M 24.18 46.2 C 12.22 46.2 2.48 36.47 2.48 24.5 C 2.48 12.53 12.22 2.8 24.18 2.8 C 36.15 2.8 45.88 12.53 45.88 24.5 C 45.88 36.47 36.15 46.2 24.18 46.2 Z" />
</svg>