<?xml version="1.0" encoding="utf-8"?>
<!-- Generator: Avocode 2.6.0 - http://avocode.com -->
<svg height="32" width="32" xmlns:xlink="http://www.w3.org/1999/xlink" xmlns="http://www.w3.org/2000/svg" viewBox="0 0 32 32">
    <path fill="#ffffff" opacity="0.8" fill-rule="evenodd" d="M 15.87 31.61 C 7.2 31.61 0.17 24.59 0.17 15.92 C 0.17 7.25 7.2 0.23 15.87 0.23 C 24.53 0.23 31.56 7.25 31.56 15.92 C 31.56 24.59 24.53 31.61 15.87 31.61 Z M 19.77 6.3 C 19.77 6.3 16.98 6.3 16.98 6.3 C 13.69 6.3 12.9 7.84 12.9 10.64 C 12.9 10.64 12.9 12.84 12.9 12.84 C 12.9 12.84 11.01 12.84 11.01 12.84 C 11.01 12.84 11.01 15.93 11.01 15.93 C 11.01 15.93 12.9 15.93 12.9 15.93 C 12.9 15.93 12.9 25.22 12.9 25.22 C 12.9 25.22 16.64 25.22 16.64 25.22 C 16.64 25.22 16.64 15.93 16.64 15.93 C 16.64 15.93 19.38 15.93 19.38 15.93 C 19.38 15.93 19.67 12.84 19.67 12.84 C 19.67 12.84 16.64 12.84 16.64 12.84 C 16.64 12.84 16.64 10.98 16.64 10.98 C 16.64 10.09 16.73 9.72 18.01 9.72 C 18.01 9.72 19.77 9.72 19.77 9.72 C 19.77 9.72 19.77 6.3 19.77 6.3 Z" />
</svg>