<?xml version="1.0" encoding="utf-8"?>
<!-- Generator: Avocode 2.6.0 - http://avocode.com -->
<svg height="49" width="49" xmlns:xlink="http://www.w3.org/1999/xlink" xmlns="http://www.w3.org/2000/svg" viewBox="0 0 49 49">
    <path fill="#323232" fill-rule="evenodd" d="M 24.5 48.2 C 11.41 48.2 0.8 37.59 0.8 24.5 C 0.8 11.41 11.41 0.8 24.5 0.8 C 37.59 0.8 48.2 11.41 48.2 24.5 C 48.2 37.59 37.59 48.2 24.5 48.2 Z M 24.5 2.8 C 12.53 2.8 2.8 12.53 2.8 24.5 C 2.8 36.47 12.53 46.2 24.5 46.2 C 36.47 46.2 46.2 36.47 46.2 24.5 C 46.2 12.53 36.47 2.8 24.5 2.8 Z M 32.16 32 C 32.16 32 16.62 32 16.62 32 C 16.18 32 15.81 31.64 15.81 31.19 C 15.81 31.19 15.81 16.51 15.81 16.51 C 15.81 14.22 16.71 12.07 18.33 10.45 C 19.95 8.83 22.1 7.93 24.39 7.93 C 26.68 7.93 28.83 8.83 30.45 10.45 C 32.07 12.07 32.97 14.22 32.97 16.51 C 32.97 16.51 32.97 31.19 32.97 31.19 C 32.97 31.64 32.6 32 32.16 32 Z M 31.35 20.65 C 30.71 20.43 30.32 19.99 30 19.64 C 29.63 19.23 29.45 19.05 29.06 19.05 C 29.03 19.06 28.92 19.14 28.75 19.48 C 28.58 19.81 28.41 20.27 28.26 20.7 C 28.06 21.28 27.85 21.87 27.56 22.35 C 27.14 23.07 26.59 23.43 25.94 23.43 C 25.29 23.43 24.75 23.07 24.33 22.35 C 24.04 21.87 23.83 21.28 23.63 20.7 C 23.47 20.27 23.31 19.81 23.14 19.48 C 22.97 19.14 22.85 19.06 22.83 19.05 C 22.44 19.05 22.25 19.23 21.89 19.64 C 21.46 20.12 20.87 20.78 19.73 20.78 C 18.59 20.78 18 20.12 17.58 19.64 C 17.53 19.59 17.48 19.54 17.43 19.49 C 17.43 19.49 17.43 30.38 17.43 30.38 C 17.43 30.38 31.35 30.38 31.35 30.38 C 31.35 30.38 31.35 20.65 31.35 20.65 Z M 26.44 38.96 C 26.44 40.09 25.52 41.01 24.39 41.01 C 23.26 41.01 22.34 40.09 22.34 38.96 C 22.34 38.96 22.34 32.8 22.34 32.8 C 22.34 32.8 26.44 32.8 26.44 32.8 C 26.44 32.8 26.44 38.96 26.44 38.96 Z" />
</svg>