<?xml version="1.0" encoding="utf-8"?>
<!-- Generator: Avocode 2.6.0 - http://avocode.com -->
<svg height="19" width="21" xmlns:xlink="http://www.w3.org/1999/xlink" xmlns="http://www.w3.org/2000/svg" viewBox="0 0 21 19">
    <path fill-opacity="0.99" fill="#353535" fill-rule="evenodd" d="M 17.06 18.99 C 17.06 18.99 6 18.99 6 18.99 C 4.34 18.99 3 17.64 3 15.99 C 3 15.99 3 15 3 15 C 3 15 5 15 5 15 C 5 15 5 17 5 17 C 5 17 18 17 18 17 C 18 17 18 2 18 2 C 18 2 5 2 5 2 C 5 2 5 3.97 5 3.97 C 5 3.97 3 3.97 3 3.97 C 3 3.97 3 3.01 3 3.01 C 3 1.35 4.34 0.01 6 0.01 C 6 0.01 17.06 0.01 17.06 0.01 C 18.72 0.01 20.06 1.35 20.06 3.01 C 20.06 3.01 20.06 15.99 20.06 15.99 C 20.06 17.64 18.72 18.99 17.06 18.99 Z M 6.02 4.16 C 6.02 4.16 13.05 9.46 13.05 9.46 C 13.05 9.46 6.02 14.76 6.02 14.76 C 6.02 14.76 6.02 12.01 6.02 12.01 C 6.02 12.01 0 12.01 0 12.01 C 0 12.01 0 6.9 0 6.9 C 0 6.9 6.02 6.9 6.02 6.9 C 6.02 6.9 6.02 4.16 6.02 4.16 Z" />
</svg>