<?xml version="1.0" encoding="utf-8"?>
<!-- Generator: Avocode 2.6.0 - http://avocode.com -->
<svg height="17" width="17" xmlns:xlink="http://www.w3.org/1999/xlink" xmlns="http://www.w3.org/2000/svg" viewBox="0 0 17 17">
    <path fill="#ffffff" fill-rule="evenodd" d="M 12.15 10.75 C 12.15 10.75 11.4 10.75 11.4 10.75 C 11.4 10.75 11.13 10.49 11.13 10.49 C 12.06 9.4 12.63 8 12.63 6.46 C 12.63 3.03 9.85 0.26 6.42 0.26 C 3 0.26 0.22 3.03 0.22 6.46 C 0.22 9.88 3 12.65 6.42 12.65 C 7.97 12.65 9.37 12.09 10.46 11.16 C 10.46 11.16 10.72 11.42 10.72 11.42 C 10.72 11.42 10.72 12.18 10.72 12.18 C 10.72 12.18 15.49 16.94 15.49 16.94 C 15.49 16.94 16.92 15.52 16.92 15.52 C 16.92 15.52 12.15 10.75 12.15 10.75 Z M 6.42 10.75 C 4.05 10.75 2.13 8.83 2.13 6.46 C 2.13 4.09 4.05 2.16 6.42 2.16 C 8.8 2.16 10.72 4.09 10.72 6.46 C 10.72 8.83 8.8 10.75 6.42 10.75 Z" />
</svg>