<?xml version="1.0" encoding="utf-8"?>
<!-- Generator: Avocode 2.6.0 - http://avocode.com -->
<svg height="49" width="48" xmlns:xlink="http://www.w3.org/1999/xlink" xmlns="http://www.w3.org/2000/svg" viewBox="0 0 48 49">
    <path fill="#323232" fill-rule="evenodd" d="M 24.18 48.2 C 11.09 48.2 0.48 37.59 0.48 24.5 C 0.48 11.41 11.09 0.8 24.18 0.8 C 37.27 0.8 47.88 11.41 47.88 24.5 C 47.88 37.59 37.27 48.2 24.18 48.2 Z M 24.18 2.8 C 12.22 2.8 2.48 12.53 2.48 24.5 C 2.48 36.47 12.22 46.2 24.18 46.2 C 36.15 46.2 45.88 36.47 45.88 24.5 C 45.88 12.53 36.15 2.8 24.18 2.8 Z M 36 26 C 36 26 32 26 32 26 C 31.45 26 31 25.55 31 25 C 31 24.45 31.45 24 32 24 C 32 24 36 24 36 24 C 36.55 24 37 24.45 37 25 C 37 25.55 36.55 26 36 26 Z M 36 22 C 36 22 32 22 32 22 C 31.45 22 31 21.55 31 21 C 31 20.45 31.45 20 32 20 C 32 20 36 20 36 20 C 36.55 20 37 20.45 37 21 C 37 21.55 36.55 22 36 22 Z M 36 18 C 36 18 32 18 32 18 C 31.45 18 31 17.55 31 17 C 31 16.45 31.45 16 32 16 C 32 16 36 16 36 16 C 36.55 16 37 16.45 37 17 C 37 17.55 36.55 18 36 18 Z M 36 14 C 36 14 32 14 32 14 C 31.45 14 31 13.55 31 13 C 31 12.45 31.45 12 32 12 C 32 12 36 12 36 12 C 36.55 12 37 12.45 37 13 C 37 13.55 36.55 14 36 14 Z M 24.02 39.33 C 20.27 39.33 17.2 36.29 17.2 32.56 C 17.2 30.94 18.02 29.28 19.02 27.96 C 19.02 27.96 19.02 13.12 19.02 13.12 C 19.02 10.39 21.27 8.17 24.02 8.17 C 26.78 8.17 29.02 10.39 29.02 13.12 C 29.02 13.12 29.02 28.03 29.02 28.03 C 30.02 29.31 30.8 30.92 30.8 32.56 C 30.8 36.29 27.77 39.33 24.02 39.33 Z M 27.07 28.84 C 27.07 28.84 27.07 13.12 27.07 13.12 C 27.07 11.49 25.69 10.17 24.07 10.17 C 22.44 10.17 21.07 11.49 21.07 13.12 C 21.07 13.12 21.07 28.78 21.07 28.78 C 20.07 29.66 19.22 31.05 19.22 32.56 C 19.22 35.19 21.39 37.33 24.02 37.33 C 26.66 37.33 28.82 35.19 28.82 32.56 C 28.82 31.08 28.07 29.73 27.07 28.84 Z M 23.96 35.19 C 22.42 35.19 21.18 33.95 21.18 32.42 C 21.18 31.2 21.97 30.18 23.05 29.81 C 23.05 29.81 23.05 12.97 23.05 12.97 C 23.05 12.45 23.48 12.03 24 12.03 C 24.53 12.03 24.95 12.45 24.95 12.97 C 24.95 12.97 24.95 29.84 24.95 29.84 C 25.99 30.24 26.73 31.24 26.73 32.42 C 26.73 33.95 25.49 35.19 23.96 35.19 Z" />
</svg>