<?xml version="1.0" encoding="utf-8"?>
<!-- Generator: Avocode 2.6.0 - http://avocode.com -->
<svg height="32" width="32" xmlns:xlink="http://www.w3.org/1999/xlink" xmlns="http://www.w3.org/2000/svg" viewBox="0 0 32 32">
    <path fill="#ffffff" fill-rule="evenodd" d="M 15.87 31.61 C 7.2 31.61 0.17 24.59 0.17 15.92 C 0.17 7.25 7.2 0.23 15.87 0.23 C 24.53 0.23 31.56 7.25 31.56 15.92 C 31.56 24.59 24.53 31.61 15.87 31.61 Z M 21.07 16.28 C 20.57 15.73 19.9 15.37 19.06 15.2 C 19.06 15.2 19.06 15.12 19.06 15.12 C 19.64 14.88 20.1 14.5 20.43 13.98 C 20.76 13.46 20.93 12.87 20.93 12.21 C 20.93 11.64 20.81 11.13 20.57 10.69 C 20.33 10.26 19.96 9.9 19.48 9.64 C 19.03 9.4 18.54 9.24 18.03 9.16 C 17.52 9.09 16.76 9.05 15.76 9.05 C 15.76 9.05 10.96 9.05 10.96 9.05 C 10.96 9.05 10.96 22.64 10.96 22.64 C 10.96 22.64 16.4 22.64 16.4 22.64 C 17.34 22.64 18.12 22.56 18.73 22.39 C 19.35 22.22 19.91 21.93 20.42 21.53 C 20.85 21.2 21.19 20.78 21.45 20.26 C 21.71 19.75 21.83 19.16 21.83 18.48 C 21.83 17.56 21.58 16.82 21.07 16.28 Z M 17.42 19.89 C 17.07 20.04 16.72 20.12 16.38 20.13 C 16.04 20.14 15.43 20.15 14.54 20.15 C 14.54 20.15 14.35 20.15 14.35 20.15 C 14.35 20.15 14.35 16.75 14.35 16.75 C 14.35 16.75 14.99 16.75 14.99 16.75 C 15.59 16.75 16.08 16.75 16.44 16.76 C 16.8 16.77 17.09 16.81 17.29 16.89 C 17.63 17.01 17.89 17.19 18.06 17.43 C 18.23 17.67 18.32 18 18.32 18.42 C 18.32 18.74 18.25 19.04 18.1 19.3 C 17.96 19.56 17.73 19.75 17.42 19.89 Z M 16.74 14.21 C 16.49 14.32 16.25 14.39 16.01 14.4 C 15.78 14.41 15.37 14.42 14.78 14.42 C 14.78 14.42 14.35 14.42 14.35 14.42 C 14.35 14.42 14.35 11.54 14.35 11.54 C 14.35 11.54 14.59 11.54 14.59 11.54 C 15.2 11.54 15.66 11.55 15.97 11.55 C 16.28 11.56 16.54 11.62 16.76 11.72 C 17 11.82 17.18 11.99 17.29 12.22 C 17.4 12.45 17.46 12.67 17.46 12.89 C 17.46 13.19 17.41 13.45 17.3 13.68 C 17.2 13.9 17.01 14.08 16.74 14.21 Z" />
</svg>
